<svg width="365px" height="364px" viewBox="0 0 365 364" version="1.1" xmlns="http://www.w3.org/2000/svg" xmlns:xlink="http://www.w3.org/1999/xlink">
    <!-- Generator: Sketch 46.2 (44496) - http://www.bohemiancoding.com/sketch -->
    <desc>Created with Sketch.</desc>
    <defs>
        <rect id="path-1" x="0" y="0" width="17" height="63"></rect>
        <rect id="path-2" x="0" y="301" width="17" height="63"></rect>
        <rect id="path-3" x="0" y="0" width="17" height="63"></rect>
        <rect id="path-4" x="0" y="301" width="17" height="63"></rect>
        <rect id="path-5" x="0" y="0" width="17" height="63"></rect>
        <rect id="path-6" x="0" y="301" width="17" height="63"></rect>
        <rect id="path-7" x="0" y="0" width="17" height="63"></rect>
        <rect id="path-8" x="0" y="301" width="17" height="63"></rect>
        <rect id="path-9" x="0" y="0" width="17" height="63"></rect>
        <rect id="path-10" x="0" y="301" width="17" height="63"></rect>
        <rect id="path-11" x="0" y="0" width="17" height="63"></rect>
        <rect id="path-12" x="0" y="301" width="17" height="63"></rect>
        <rect id="path-13" x="0" y="0" width="17" height="63"></rect>
        <rect id="path-14" x="0" y="301" width="17" height="63"></rect>
        <rect id="path-15" x="0" y="0" width="17" height="63"></rect>
        <rect id="path-16" x="0" y="301" width="17" height="63"></rect>
    </defs>
    <g id="Page-1" stroke="none" stroke-width="1" fill="none" fill-rule="evenodd">
        <g id="Group-2">
            <circle id="Oval" stroke="#979797" fill="#F5A623" cx="182" cy="182" r="102"></circle>
            <g id="Group" transform="translate(174.000000, 0.000000)">
                <g id="Rectangle">
                    <use fill="#F8E71C" fill-rule="evenodd" xlink:href="#path-1"></use>
                    <rect stroke="#979797" stroke-width="1" x="0.5" y="0.5" width="16" height="62"></rect>
                </g>
                <g id="Rectangle">
                    <use fill="#F8E71C" fill-rule="evenodd" xlink:href="#path-2"></use>
                    <rect stroke="#979797" stroke-width="1" x="0.5" y="301.5" width="16" height="62"></rect>
                </g>
            </g>
            <g id="Group" transform="translate(182.500000, 182.000000) rotate(90.000000) translate(-182.500000, -182.000000) translate(174.000000, 0.000000)">
                <g id="Rectangle">
                    <use fill="#F8E71C" fill-rule="evenodd" xlink:href="#path-3"></use>
                    <rect stroke="#979797" stroke-width="1" x="0.5" y="0.5" width="16" height="62"></rect>
                </g>
                <g id="Rectangle">
                    <use fill="#F8E71C" fill-rule="evenodd" xlink:href="#path-4"></use>
                    <rect stroke="#979797" stroke-width="1" x="0.5" y="301.5" width="16" height="62"></rect>
                </g>
            </g>
            <g id="Group" transform="translate(182.500000, 182.000000) rotate(45.000000) translate(-182.500000, -182.000000) translate(174.000000, 0.000000)">
                <g id="Rectangle">
                    <use fill="#F8E71C" fill-rule="evenodd" xlink:href="#path-5"></use>
                    <rect stroke="#979797" stroke-width="1" x="0.5" y="0.5" width="16" height="62"></rect>
                </g>
                <g id="Rectangle">
                    <use fill="#F8E71C" fill-rule="evenodd" xlink:href="#path-6"></use>
                    <rect stroke="#979797" stroke-width="1" x="0.5" y="301.5" width="16" height="62"></rect>
                </g>
            </g>
            <g id="Group" transform="translate(182.500000, 182.000000) rotate(-45.000000) translate(-182.500000, -182.000000) translate(174.000000, 0.000000)">
                <g id="Rectangle">
                    <use fill="#F8E71C" fill-rule="evenodd" xlink:href="#path-7"></use>
                    <rect stroke="#979797" stroke-width="1" x="0.5" y="0.5" width="16" height="62"></rect>
                </g>
                <g id="Rectangle">
                    <use fill="#F8E71C" fill-rule="evenodd" xlink:href="#path-8"></use>
                    <rect stroke="#979797" stroke-width="1" x="0.5" y="301.5" width="16" height="62"></rect>
                </g>
            </g>
            <g id="Group" transform="translate(182.500000, 182.000000) rotate(22.500000) translate(-182.500000, -182.000000) translate(174.000000, 0.000000)">
                <g id="Rectangle">
                    <use fill="#F8E71C" fill-rule="evenodd" xlink:href="#path-9"></use>
                    <rect stroke="#979797" stroke-width="1" x="0.5" y="0.5" width="16" height="62"></rect>
                </g>
                <g id="Rectangle">
                    <use fill="#F8E71C" fill-rule="evenodd" xlink:href="#path-10"></use>
                    <rect stroke="#979797" stroke-width="1" x="0.5" y="301.5" width="16" height="62"></rect>
                </g>
            </g>
            <g id="Group" transform="translate(182.500000, 182.000000) rotate(67.500000) translate(-182.500000, -182.000000) translate(174.000000, -0.000000)">
                <g id="Rectangle">
                    <use fill="#F8E71C" fill-rule="evenodd" xlink:href="#path-11"></use>
                    <rect stroke="#979797" stroke-width="1" x="0.5" y="0.5" width="16" height="62"></rect>
                </g>
                <g id="Rectangle">
                    <use fill="#F8E71C" fill-rule="evenodd" xlink:href="#path-12"></use>
                    <rect stroke="#979797" stroke-width="1" x="0.5" y="301.5" width="16" height="62"></rect>
                </g>
            </g>
            <g id="Group" transform="translate(182.500000, 182.000000) rotate(111.500000) translate(-182.500000, -182.000000) translate(174.000000, 0.000000)">
                <g id="Rectangle">
                    <use fill="#F8E71C" fill-rule="evenodd" xlink:href="#path-13"></use>
                    <rect stroke="#979797" stroke-width="1" x="0.5" y="0.5" width="16" height="62"></rect>
                </g>
                <g id="Rectangle">
                    <use fill="#F8E71C" fill-rule="evenodd" xlink:href="#path-14"></use>
                    <rect stroke="#979797" stroke-width="1" x="0.5" y="301.5" width="16" height="62"></rect>
                </g>
            </g>
            <g id="Group" transform="translate(182.500000, 182.000000) rotate(156.500000) translate(-182.500000, -182.000000) translate(174.000000, -0.000000)">
                <g id="Rectangle">
                    <use fill="#F8E71C" fill-rule="evenodd" xlink:href="#path-15"></use>
                    <rect stroke="#979797" stroke-width="1" x="0.5" y="0.5" width="16" height="62"></rect>
                </g>
                <g id="Rectangle">
                    <use fill="#F8E71C" fill-rule="evenodd" xlink:href="#path-16"></use>
                    <rect stroke="#979797" stroke-width="1" x="0.5" y="301.5" width="16" height="62"></rect>
                </g>
            </g>
        </g>
    </g>
</svg>